<svg width="1200" height="900" viewBox="0 0 1200 900" fill="none" xmlns="http://www.w3.org/2000/svg">
  <rect width="1200" height="900" rx="48" fill="#F5EFE0"/>
  <circle cx="955" cy="175" r="108" fill="#F2B544" fill-opacity="0.55"/>
  <circle cx="241" cy="186" r="82" fill="#DDE9DF"/>
  <rect x="112" y="590" width="976" height="158" rx="30" fill="#D6E4DA"/>
  <rect x="135" y="311" width="641" height="250" rx="28" fill="#12372A"/>
  <rect x="748" y="383" width="224" height="178" rx="24" fill="#2D6A4F"/>
  <rect x="814" y="294" width="126" height="118" rx="18" fill="#4D8B67"/>
  <rect x="206" y="355" width="211" height="111" rx="16" fill="#F8FBF6"/>
  <rect x="451" y="355" width="211" height="111" rx="16" fill="#F8FBF6"/>
  <circle cx="299" cy="612" r="58" fill="#17201B"/>
  <circle cx="848" cy="612" r="58" fill="#17201B"/>
  <circle cx="299" cy="612" r="26" fill="#F1EAD8"/>
  <circle cx="848" cy="612" r="26" fill="#F1EAD8"/>
  <rect x="146" y="548" width="404" height="34" rx="17" fill="#0E2C20"/>
  <rect x="90" y="668" width="1020" height="34" rx="17" fill="#B1C8B7"/>
  <rect x="118" y="201" width="199" height="56" rx="20" fill="#FFF8EA"/>
  <text x="152" y="237" fill="#12372A" font-family="Arial, sans-serif" font-size="30" font-weight="700">Neat Fleets</text>
  <rect x="925" y="536" width="128" height="46" rx="18" fill="#FFF8EA"/>
  <text x="945" y="566" fill="#12372A" font-family="Arial, sans-serif" font-size="24" font-weight="700">LOCAL</text>
  <rect x="506" y="486" width="165" height="52" rx="16" fill="#F2B544"/>
  <text x="535" y="520" fill="#12372A" font-family="Arial, sans-serif" font-size="26" font-weight="700">MOVE</text>
</svg>
